<?xml version="1.0" standalone="no"?>
<!DOCTYPE svg PUBLIC "-//W3C//DTD SVG 20010904//EN"
 "http://www.w3.org/TR/2001/REC-SVG-20010904/DTD/svg10.dtd">
<svg version="1.0" xmlns="http://www.w3.org/2000/svg"
 width="700.000000pt" height="700.000000pt" viewBox="0 0 700.000000 700.000000"
 preserveAspectRatio="xMidYMid meet">
<metadata>
Created by potrace 1.11, written by Peter Selinger 2001-2013
</metadata>
<g transform="translate(0.000000,700.000000) scale(0.100000,-0.100000)"
fill="#000000" stroke="none">
<path d="M3230 6829 c-796 -68 -1524 -404 -2080 -959 -278 -277 -475 -550
-645 -895 -353 -717 -438 -1524 -240 -2300 328 -1293 1401 -2269 2720 -2474
952 -148 1917 120 2656 736 944 788 1376 2030 1129 3243 -107 524 -355 1037
-706 1460 -517 622 -1284 1052 -2079 1164 -248 35 -530 44 -755 25z m-397
-1714 c454 -973 588 -1259 591 -1262 1 -1 41 82 89 185 88 191 182 390 557
1187 116 248 235 502 263 565 l52 114 3 -52 c2 -38 -7 -84 -33 -170 -51 -164
-208 -663 -455 -1443 -116 -367 -213 -683 -217 -702 -5 -31 2 -48 49 -124 30
-48 79 -128 108 -178 30 -49 73 -120 98 -158 l44 -67 -62 -70 c-34 -39 -69
-70 -79 -70 -9 1 -49 39 -90 86 -76 87 -177 181 -265 248 -35 27 -54 35 -70
30 -47 -15 -188 -140 -335 -298 -88 -95 -377 -449 -448 -548 l-32 -45 48 -41
c124 -105 191 -290 162 -447 -16 -85 -66 -181 -125 -240 -83 -82 -220 -144
-356 -160 -55 -7 -56 -8 -205 -154 -174 -172 -215 -196 -346 -211 -46 -5 -110
-10 -142 -10 l-58 0 3 52 3 52 91 35 c294 116 400 278 288 441 -139 201 -114
458 59 615 131 119 270 156 452 119 30 -6 31 -5 155 203 235 394 466 778 503
836 23 36 37 69 37 90 0 18 -59 217 -131 443 -72 225 -205 643 -295 929 -91
286 -190 595 -220 687 -52 159 -77 277 -66 307 4 11 6 11 13 0 4 -8 167 -356
362 -774z m-1207 -814 c21 -16 313 -303 647 -638 l609 -610 -65 -109 c-36 -60
-72 -118 -81 -129 -14 -19 -25 -10 -263 225 -136 135 -422 417 -635 628 -214
210 -397 396 -408 414 -25 42 -25 94 -1 135 24 39 116 113 140 113 10 0 36
-13 57 -29z m3843 -105 l124 -124 -1068 -1071 c-588 -589 -1072 -1071 -1076
-1071 -5 0 -66 56 -136 124 l-128 124 368 367 c202 202 367 368 367 369 0 1
106 108 236 236 129 129 445 445 702 703 256 257 471 467 477 467 6 0 66 -56
134 -124z m-2210 -1628 l98 -197 -51 -50 -51 -50 -193 191 c-106 106 -191 197
-188 203 2 5 44 57 92 114 l88 104 54 -59 c41 -45 76 -105 151 -256z m1016
-52 c35 -60 66 -113 68 -119 2 -6 21 -6 55 2 298 64 582 -160 582 -459 0 -179
-105 -347 -267 -427 -68 -34 -82 -37 -181 -41 -91 -3 -117 -1 -172 18 -282 95
-402 401 -264 674 29 57 89 129 133 159 l24 16 -26 38 c-15 21 -48 66 -75 99
-27 33 -46 66 -44 74 2 8 23 34 46 58 30 32 43 40 49 30 4 -7 37 -62 72 -122z
m-601 -559 c133 -178 174 -311 124 -407 -13 -24 -28 -45 -33 -47 -6 -2 -18 33
-27 78 -21 99 -55 175 -141 306 l-65 101 31 31 c18 17 34 31 37 31 3 0 36 -42
74 -93z"/>
<path d="M3385 3626 c-67 -30 -92 -101 -58 -166 39 -74 127 -88 185 -29 23 23
28 36 28 78 0 44 -5 56 -32 86 -38 40 -80 51 -123 31z m120 -41 c31 -30 33
-86 5 -132 -18 -30 -24 -33 -67 -33 -30 0 -60 7 -80 20 -30 18 -33 24 -33 70
0 71 29 100 100 100 41 0 56 -5 75 -25z"/>
<path d="M2288 2290 c-113 -19 -212 -90 -265 -192 -25 -48 -28 -62 -28 -158 0
-101 1 -108 34 -168 40 -74 94 -124 171 -161 46 -21 69 -26 140 -26 75 0 93 4
152 32 81 38 142 97 177 172 22 48 26 69 26 151 0 85 -3 101 -29 154 -52 106
-141 173 -261 195 -32 6 -61 10 -64 10 -3 -1 -27 -5 -53 -9z"/>
<path d="M3396 2184 c-11 -42 2 -66 32 -62 24 3 27 8 30 46 3 41 2 42 -26 42
-24 0 -31 -5 -36 -26z"/>
<path d="M4432 2285 c-273 -61 -372 -383 -181 -589 120 -131 314 -146 472 -38
60 42 122 136 138 209 23 114 -22 255 -105 331 -91 84 -204 114 -324 87z"/>
</g>
</svg>
